<?xml version="1.0" encoding="UTF-8" standalone="no"?><svg xmlns="http://www.w3.org/2000/svg" xmlns:xlink="http://www.w3.org/1999/xlink" contentScriptType="application/ecmascript" contentStyleType="text/css" height="1814px" preserveAspectRatio="none" style="width:1670px;height:1814px;" version="1.1" viewBox="0 0 1670 1814" width="1670px" zoomAndPan="magnify"><defs><filter height="300%" id="f1lscpdhf7i0i9" width="300%" x="-1" y="-1"><feGaussianBlur result="blurOut" stdDeviation="4.0"/><feColorMatrix in="blurOut" result="blurOut2" type="matrix" values="0 0 0 0 0 0 0 0 0 0 0 0 0 0 0 0 0 0 .4 0"/><feOffset dx="8.0" dy="8.0" in="blurOut2" result="blurOut3"/><feBlend in="SourceGraphic" in2="blurOut3" mode="normal"/></filter></defs><g><!--MD5=[3ff016c1aa5003d713567a073e2181a6]
cluster application--><rect fill="#FFFFFF" filter="url(#f1lscpdhf7i0i9)" height="1542" style="stroke: #000000; stroke-width: 3.0;" width="1484" x="164" y="49"/><text fill="#000000" font-family="sans-serif" font-size="28" font-weight="bold" lengthAdjust="spacingAndGlyphs" textLength="154" x="829" y="82.0664">application</text><ellipse cx="338.397" cy="948.9034" fill="#FEFECE" filter="url(#f1lscpdhf7i0i9)" rx="65.397" ry="30.9034" style="stroke: #A80036; stroke-width: 3.0;"/><text fill="#000000" font-family="sans-serif" font-size="28" lengthAdjust="spacingAndGlyphs" textLength="84" x="296.397" y="959.5128">signup</text><ellipse cx="338.2654" cy="1315.2531" fill="#FEFECE" filter="url(#f1lscpdhf7i0i9)" rx="142.2654" ry="33.2531" style="stroke: #A80036; stroke-width: 3.0;"/><text fill="#000000" font-family="sans-serif" font-size="28" lengthAdjust="spacingAndGlyphs" textLength="208" x="234.2654" y="1325.8624">view apartments</text><ellipse cx="338.267" cy="436.9034" fill="#FEFECE" filter="url(#f1lscpdhf7i0i9)" rx="92.267" ry="30.9034" style="stroke: #A80036; stroke-width: 3.0;"/><text fill="#000000" font-family="sans-serif" font-size="28" lengthAdjust="spacingAndGlyphs" textLength="122" x="277.267" y="447.5128">login host</text><ellipse cx="338.4264" cy="780.9034" fill="#FEFECE" filter="url(#f1lscpdhf7i0i9)" rx="48.4264" ry="30.9034" style="stroke: #A80036; stroke-width: 3.0;"/><text fill="#000000" font-family="sans-serif" font-size="28" lengthAdjust="spacingAndGlyphs" textLength="60" x="308.4264" y="791.5128">login</text><ellipse cx="917.898" cy="855.1796" fill="#FEFECE" filter="url(#f1lscpdhf7i0i9)" rx="146.898" ry="34.1796" style="stroke: #A80036; stroke-width: 3.0;"/><text fill="#000000" font-family="sans-serif" font-size="28" lengthAdjust="spacingAndGlyphs" textLength="220" x="807.898" y="865.789">make reservation</text><ellipse cx="1480.7954" cy="854.7591" fill="#FEFECE" filter="url(#f1lscpdhf7i0i9)" rx="134.7954" ry="31.7591" style="stroke: #A80036; stroke-width: 3.0;"/><text fill="#000000" font-family="sans-serif" font-size="28" lengthAdjust="spacingAndGlyphs" textLength="188" x="1386.7954" y="865.3685">make payment</text><ellipse cx="1481.0674" cy="1256.6135" fill="#FEFECE" filter="url(#f1lscpdhf7i0i9)" rx="134.0674" ry="31.6135" style="stroke: #A80036; stroke-width: 3.0;"/><text fill="#000000" font-family="sans-serif" font-size="28" lengthAdjust="spacingAndGlyphs" textLength="186" x="1388.0674" y="1267.2228">send/get email</text><ellipse cx="917.9897" cy="716.7979" fill="#FEFECE" filter="url(#f1lscpdhf7i0i9)" rx="139.9897" ry="32.7979" style="stroke: #A80036; stroke-width: 3.0;"/><text fill="#000000" font-family="sans-serif" font-size="28" lengthAdjust="spacingAndGlyphs" textLength="202" x="816.9897" y="727.4073">view credentials</text><ellipse cx="918.4092" cy="582.9034" fill="#FEFECE" filter="url(#f1lscpdhf7i0i9)" rx="106.4092" ry="30.9034" style="stroke: #A80036; stroke-width: 3.0;"/><text fill="#000000" font-family="sans-serif" font-size="28" lengthAdjust="spacingAndGlyphs" textLength="142" x="847.4092" y="593.5128">view profile</text><ellipse cx="917.898" cy="1127.1796" fill="#FEFECE" filter="url(#f1lscpdhf7i0i9)" rx="146.898" ry="34.1796" style="stroke: #A80036; stroke-width: 3.0;"/><text fill="#000000" font-family="sans-serif" font-size="28" lengthAdjust="spacingAndGlyphs" textLength="220" x="807.898" y="1137.789">view reservations</text><ellipse cx="918.1543" cy="990.9034" fill="#FEFECE" filter="url(#f1lscpdhf7i0i9)" rx="61.1543" ry="30.9034" style="stroke: #A80036; stroke-width: 3.0;"/><text fill="#000000" font-family="sans-serif" font-size="28" lengthAdjust="spacingAndGlyphs" textLength="78" x="879.1543" y="1001.5128">logout</text><ellipse cx="918.0366" cy="290.9034" fill="#FEFECE" filter="url(#f1lscpdhf7i0i9)" rx="129.0366" ry="30.9034" style="stroke: #A80036; stroke-width: 3.0;"/><text fill="#000000" font-family="sans-serif" font-size="28" lengthAdjust="spacingAndGlyphs" textLength="174" x="831.0366" y="301.5128">view earnings</text><ellipse cx="918.1187" cy="155.0237" fill="#FEFECE" filter="url(#f1lscpdhf7i0i9)" rx="146.1187" ry="34.0237" style="stroke: #A80036; stroke-width: 3.0;"/><text fill="#000000" font-family="sans-serif" font-size="28" lengthAdjust="spacingAndGlyphs" textLength="218" x="809.1187" y="165.6331">create apartment</text><ellipse cx="917.9049" cy="436.581" fill="#FEFECE" filter="url(#f1lscpdhf7i0i9)" rx="193.9049" ry="43.581" style="stroke: #A80036; stroke-width: 3.0;"/><text fill="#000000" font-family="sans-serif" font-size="28" lengthAdjust="spacingAndGlyphs" textLength="332" x="751.9049" y="447.1904">view customer reservation</text><ellipse cx="917.6225" cy="1395.3245" fill="#FEFECE" filter="url(#f1lscpdhf7i0i9)" rx="132.6225" ry="31.3245" style="stroke: #A80036; stroke-width: 3.0;"/><text fill="#000000" font-family="sans-serif" font-size="28" lengthAdjust="spacingAndGlyphs" textLength="182" x="826.6225" y="1405.9339">use searchbar</text><ellipse cx="918.1371" cy="1262.9034" fill="#FEFECE" filter="url(#f1lscpdhf7i0i9)" rx="119.1371" ry="30.9034" style="stroke: #A80036; stroke-width: 3.0;"/><text fill="#000000" font-family="sans-serif" font-size="28" lengthAdjust="spacingAndGlyphs" textLength="160" x="838.1371" y="1273.5128">make review</text><ellipse cx="918.267" cy="1526.9034" fill="#FEFECE" filter="url(#f1lscpdhf7i0i9)" rx="92.267" ry="30.9034" style="stroke: #A80036; stroke-width: 3.0;"/><text fill="#000000" font-family="sans-serif" font-size="28" lengthAdjust="spacingAndGlyphs" textLength="122" x="857.267" y="1537.5128">use filters</text><!--MD5=[8fc3522a43f8c7199df5e09e5bb0188e]
entity user--><ellipse cx="41" cy="885" fill="#FEFECE" filter="url(#f1lscpdhf7i0i9)" rx="16" ry="16" style="stroke: #A80036; stroke-width: 3.0;"/><path d="M41,901 L41,955 M15,917 L67,917 M41,955 L15,985 M41,955 L67,985 " fill="none" filter="url(#f1lscpdhf7i0i9)" style="stroke: #A80036; stroke-width: 3.0;"/><text fill="#000000" font-family="sans-serif" font-size="28" lengthAdjust="spacingAndGlyphs" textLength="56" x="13" y="1025.0664">user</text><!--MD5=[da9746410650acf9fab14ea35e32d13b]
entity host--><ellipse cx="41" cy="579" fill="#FEFECE" filter="url(#f1lscpdhf7i0i9)" rx="16" ry="16" style="stroke: #A80036; stroke-width: 3.0;"/><path d="M41,595 L41,649 M15,611 L67,611 M41,649 L15,679 M41,649 L67,679 " fill="none" filter="url(#f1lscpdhf7i0i9)" style="stroke: #A80036; stroke-width: 3.0;"/><text fill="#000000" font-family="sans-serif" font-size="28" lengthAdjust="spacingAndGlyphs" textLength="54" x="14" y="719.0664">host</text><!--MD5=[691a1726be306d84324876b17512fe90]
entity system--><ellipse cx="918" cy="1647" fill="#FEFECE" filter="url(#f1lscpdhf7i0i9)" rx="16" ry="16" style="stroke: #A80036; stroke-width: 3.0;"/><path d="M918,1663 L918,1717 M892,1679 L944,1679 M918,1717 L892,1747 M918,1717 L944,1747 " fill="none" filter="url(#f1lscpdhf7i0i9)" style="stroke: #A80036; stroke-width: 3.0;"/><text fill="#000000" font-family="sans-serif" font-size="28" lengthAdjust="spacingAndGlyphs" textLength="90" x="873" y="1787.0664">system</text><!--MD5=[961b0c0f96729315abc812055af09da9]
link host to user--><path d="M41,726.598 C41,759.616 41,792.634 41,825.652 " fill="none" id="host-&gt;user" style="stroke: #A80036; stroke-width: 2.0;"/><polygon fill="none" points="55.0002,825.926,41,865.926,27.0002,825.926,55.0002,825.926" style="stroke: #A80036; stroke-width: 2.0;"/><!--MD5=[2c3bb9c3d28bf6437a757ad60ce8b50e]
link user to signup--><path d="M70.0396,949 C115.7988,949 209.6706,949 272.74,949 " fill="none" id="user-signup" style="stroke: #A80036; stroke-width: 2.0;"/><!--MD5=[21c32e2aa9b0cc7b3d8b8fce434b5f24]
link user to view apartments--><path d="M70.0396,982.776 C126.1406,1052.854 254.56,1213.268 309.87,1282.36 " fill="none" id="user-view apartments" style="stroke: #A80036; stroke-width: 2.0;"/><!--MD5=[7423a532efd59a42303d09506bb052ba]
link host to login host--><path d="M70.0396,623.99 C121.8906,587.534 235.518,507.646 296.104,465.05 " fill="none" id="host-login host" style="stroke: #A80036; stroke-width: 2.0;"/><!--MD5=[e31cc7482cc9374773b69f5423572001]
link signup to login--><path d="M338,917.4 C338,890.65 338,852.094 338,822.794 " fill="none" id="signup-&gt;login" style="stroke: #A80036; stroke-width: 2.0; stroke-dasharray: 7.0,7.0;"/><polygon fill="#A80036" points="338,812.458,330,830.458,338,822.458,346,830.458,338,812.458" style="stroke: #A80036; stroke-width: 2.0;"/><text fill="#000000" font-family="sans-serif" font-size="26" lengthAdjust="spacingAndGlyphs" textLength="110" x="259" y="875.9902">«include»</text><!--MD5=[bcea9aa56c6d42d505f5719cca72a7b0]
reverse link login to make reservation--><path d="M395.616,789.05 C435.726,794.792 491.176,802.596 540,809 C621.834,819.734 713.796,830.998 786.288,839.694 " fill="none" id="login&lt;-make reservation" style="stroke: #A80036; stroke-width: 2.0; stroke-dasharray: 7.0,7.0;"/><polygon fill="#A80036" points="385.246,787.562,401.9278,798.0366,395.1447,788.9818,404.1995,782.1987,385.246,787.562" style="stroke: #A80036; stroke-width: 2.0;"/><text fill="#000000" font-family="sans-serif" font-size="26" lengthAdjust="spacingAndGlyphs" textLength="120" x="542" y="801.9902">«extends»</text><!--MD5=[f1c47360ec3dd767d3b9cfa0ba8c4639]
link make reservation to make payment--><path d="M1065.412,855 C1148.722,855 1252.86,855 1335.798,855 " fill="none" id="make reservation-&gt;make payment" style="stroke: #A80036; stroke-width: 2.0; stroke-dasharray: 7.0,7.0;"/><polygon fill="#A80036" points="1345.804,855,1327.804,847,1335.804,855,1327.804,863,1345.804,855" style="stroke: #A80036; stroke-width: 2.0;"/><text fill="#000000" font-family="sans-serif" font-size="26" lengthAdjust="spacingAndGlyphs" textLength="110" x="1174" y="847.9902">«include»</text><!--MD5=[717e791f2467acdc9d7db1727d2a2e9d]
link make reservation to send/get email--><path d="M1014.124,881.23 C1046.388,892.29 1081.918,906.866 1112,925 C1250.588,1008.542 1383.902,1148.864 1444.688,1217.196 " fill="none" id="make reservation-&gt;send/get email" style="stroke: #A80036; stroke-width: 2.0; stroke-dasharray: 7.0,7.0;"/><polygon fill="#A80036" points="1451.738,1225.164,1445.8019,1206.382,1445.1116,1217.6746,1433.819,1216.9843,1451.738,1225.164" style="stroke: #A80036; stroke-width: 2.0;"/><text fill="#000000" font-family="sans-serif" font-size="26" lengthAdjust="spacingAndGlyphs" textLength="110" x="1174" y="961.9902">«include»</text><!--MD5=[bc644ffa534ad40e9648c292107ca196]
link system to send/get email--><path d="M963.4,1686.8866 C1003.298,1664.0276 1063.44,1627.7988 1112,1591 C1245.206,1490.056 1387.282,1350.296 1448.288,1288.52 " fill="none" id="system-send/get email" style="stroke: #A80036; stroke-width: 2.0;"/><!--MD5=[8a7fcdd00081ec1973823c412c3fccd7]
reverse link login to view credentials--><path d="M396.256,774.75 C487.114,764.654 668.334,744.518 790.902,730.9 " fill="none" id="login&lt;-view credentials" style="stroke: #A80036; stroke-width: 2.0; stroke-dasharray: 7.0,7.0;"/><polygon fill="#A80036" points="386.162,775.87,404.9346,781.8357,396.101,774.7669,403.1697,765.9333,386.162,775.87" style="stroke: #A80036; stroke-width: 2.0;"/><text fill="#000000" font-family="sans-serif" font-size="26" lengthAdjust="spacingAndGlyphs" textLength="120" x="542" y="737.9902">«extends»</text><!--MD5=[25b0837c02d5b803f3f1a8bcf5ef7844]
reverse link login to view profile--><path d="M386.994,758.246 C427.082,739.342 486.548,712.484 540,693 C640.644,656.312 759.77,623.132 836.54,603.028 " fill="none" id="login&lt;-view profile" style="stroke: #A80036; stroke-width: 2.0; stroke-dasharray: 7.0,7.0;"/><polygon fill="#A80036" points="377.74,762.632,397.4319,762.1526,386.7766,758.3494,390.5797,747.6941,377.74,762.632" style="stroke: #A80036; stroke-width: 2.0;"/><text fill="#000000" font-family="sans-serif" font-size="26" lengthAdjust="spacingAndGlyphs" textLength="120" x="542" y="643.9902">«extends»</text><!--MD5=[633f71b714d331805aaec6ac5195a44d]
reverse link login to view reservations--><path d="M383.462,807.244 C412.682,826.132 451.01,853.41 480,883 C512.616,916.29 504.47,938.838 540,969 C609.106,1027.666 640.432,1021.878 724,1057 C759.652,1071.984 799.752,1086.898 834.048,1099.086 " fill="none" id="login&lt;-view reservations" style="stroke: #A80036; stroke-width: 2.0; stroke-dasharray: 7.0,7.0;"/><polygon fill="#A80036" points="374.704,801.658,385.5787,818.0818,383.1353,807.0351,394.182,804.5917,374.704,801.658" style="stroke: #A80036; stroke-width: 2.0;"/><text fill="#000000" font-family="sans-serif" font-size="26" lengthAdjust="spacingAndGlyphs" textLength="120" x="542" y="961.9902">«extends»</text><!--MD5=[d644c51f5e13a6f7608f95adb6c00608]
reverse link login to logout--><path d="M385.414,804.582 C425.442,824.824 485.676,853.974 540,875 C652.764,918.646 789.34,957.39 862.896,977.148 " fill="none" id="login&lt;-logout" style="stroke: #A80036; stroke-width: 2.0; stroke-dasharray: 7.0,7.0;"/><polygon fill="#A80036" points="376.19,799.894,388.6107,815.1821,385.1044,804.4255,395.861,800.9192,376.19,799.894" style="stroke: #A80036; stroke-width: 2.0;"/><text fill="#000000" font-family="sans-serif" font-size="26" lengthAdjust="spacingAndGlyphs" textLength="120" x="542" y="867.9902">«extends»</text><!--MD5=[4a115eade384166e90361c8051008bd8]
link login to login host--><path d="M338,749.422 C338,669.024 338,588.626 338,508.228 " fill="none" id="login-&gt;login host" style="stroke: #A80036; stroke-width: 2.0;"/><polygon fill="none" points="324,508.12,338,468.12,352,508.12,324,508.12" style="stroke: #A80036; stroke-width: 2.0;"/><!--MD5=[8be1e2c4b94119b716395bc500f77056]
reverse link login host to view earnings--><path d="M422.164,415.452 C458.288,406.026 501.232,394.886 540,385 C638.126,359.978 750.83,331.888 827.056,312.986 " fill="none" id="login host&lt;-view earnings" style="stroke: #A80036; stroke-width: 2.0; stroke-dasharray: 7.0,7.0;"/><polygon fill="#A80036" points="412.164,418.062,431.6011,421.2556,421.8397,415.5359,427.5594,405.7745,412.164,418.062" style="stroke: #A80036; stroke-width: 2.0;"/><text fill="#000000" font-family="sans-serif" font-size="26" lengthAdjust="spacingAndGlyphs" textLength="120" x="542" y="345.9902">«extends»</text><!--MD5=[967c7994b4ff9efc725c7177352aadf6]
reverse link login host to create apartment--><path d="M385.476,402.088 C424.942,372.782 484.334,331.01 540,301 C617.882,259.014 641.53,257.05 724,225 C760.708,210.734 801.68,195.68 836.316,183.202 " fill="none" id="login host&lt;-create apartment" style="stroke: #A80036; stroke-width: 2.0; stroke-dasharray: 7.0,7.0;"/><polygon fill="#A80036" points="376.874,408.512,396.083,404.1515,384.8863,402.5285,386.5094,391.3318,376.874,408.512" style="stroke: #A80036; stroke-width: 2.0;"/><text fill="#000000" font-family="sans-serif" font-size="26" lengthAdjust="spacingAndGlyphs" textLength="120" x="542" y="241.9902">«extends»</text><!--MD5=[4cec8db4828725d2eb6caa5524c473e8]
reverse link login host to view customer reservation --><path d="M440.3,437 C518.262,437 628.736,437 723.6,437 " fill="none" id="login host&lt;-view customer reservation " style="stroke: #A80036; stroke-width: 2.0; stroke-dasharray: 7.0,7.0;"/><polygon fill="#A80036" points="430,437,448,445,440,437,448,429,430,437" style="stroke: #A80036; stroke-width: 2.0;"/><text fill="#000000" font-family="sans-serif" font-size="26" lengthAdjust="spacingAndGlyphs" textLength="120" x="542" y="429.9902">«extends»</text><!--MD5=[7619c4462737cee97af74dddb9746748]
link view apartments to use searchbar--><path d="M454.656,1333.984 C482.556,1338.428 512.33,1343.022 540,1347 C622.572,1358.874 715.564,1370.758 788.41,1379.73 " fill="none" id="view apartments-&gt;use searchbar" style="stroke: #A80036; stroke-width: 2.0; stroke-dasharray: 7.0,7.0;"/><polygon fill="#A80036" points="799.008,1381.032,782.1188,1370.8953,789.0827,1379.8117,780.1663,1386.7757,799.008,1381.032" style="stroke: #A80036; stroke-width: 2.0;"/><text fill="#000000" font-family="sans-serif" font-size="26" lengthAdjust="spacingAndGlyphs" textLength="110" x="547" y="1339.9902">«include»</text><!--MD5=[ed43d9e65fad46d59d09b6247b2701a8]
reverse link view apartments to make review--><path d="M480.874,1302.282 C580.73,1293.268 712.844,1281.34 805.198,1273.004 " fill="none" id="view apartments&lt;-make review" style="stroke: #A80036; stroke-width: 2.0; stroke-dasharray: 7.0,7.0;"/><polygon fill="#A80036" points="470.704,1303.2,489.3511,1309.5472,480.6634,1302.2998,487.9108,1293.6121,470.704,1303.2" style="stroke: #A80036; stroke-width: 2.0;"/><text fill="#000000" font-family="sans-serif" font-size="26" lengthAdjust="spacingAndGlyphs" textLength="120" x="542" y="1277.9902">«extends»</text><!--MD5=[a2b6e5acef00c9f6f3f73ea43fc29ca2]
link view apartments to use filters--><path d="M394.848,1345.678 C434.384,1366.98 489.46,1395.014 540,1415 C638.202,1453.834 755.366,1486.71 832.506,1506.6 " fill="none" id="view apartments-&gt;use filters" style="stroke: #A80036; stroke-width: 2.0; stroke-dasharray: 7.0,7.0;"/><polygon fill="#A80036" points="842.648,1509.2,827.1974,1496.982,832.961,1506.7176,823.2255,1512.4812,842.648,1509.2" style="stroke: #A80036; stroke-width: 2.0;"/><text fill="#000000" font-family="sans-serif" font-size="26" lengthAdjust="spacingAndGlyphs" textLength="110" x="547" y="1407.9902">«include»</text><!--MD5=[e5e1b9a190e36ed25b77397af3362896]
@startuml application
scale 2
left to right direction
skinparam packageStyle rect

:user:
:host:
:system:

rectangle "application" {  



    host -|> user
    
    (user) - - (signup)      
    (user) - - (view apartments)
    host - - (login host)

    signup .>  (login): <<include>>

    login <.. (make reservation): <<extends>>
    (make reservation) ..> (make payment): <<include>>
    (make reservation) ..> (send/get email): <<include>>
    system - - (send/get email)
    login <.. (view credentials): <<extends>>
    login <.. (view profile): <<extends>>
    login <.. (view reservations): <<extends>>
    (login) <.. (logout): <<extends>>

    login -|> (login host)
    (login host) <.. (view earnings): <<extends>>
    (login host) <.. (create apartment): <<extends>>
    (login host) <.. (view customer reservation ): <<extends>>

    'forse questi non ci vanno'
    (view apartments) ..> (use searchbar): <<include>>
    (view apartments) <.. (make review): <<extends>>
    (view apartments) ..> (use filters): <<include>>
    
    
}

@enduml

@startuml application
scale 2
left to right direction
skinparam packageStyle rect

:user:
:host:
:system:

rectangle "application" {  



    host -|> user
    
    (user) - - (signup)      
    (user) - - (view apartments)
    host - - (login host)

    signup .>  (login): <<include>>

    login <.. (make reservation): <<extends>>
    (make reservation) ..> (make payment): <<include>>
    (make reservation) ..> (send/get email): <<include>>
    system - - (send/get email)
    login <.. (view credentials): <<extends>>
    login <.. (view profile): <<extends>>
    login <.. (view reservations): <<extends>>
    (login) <.. (logout): <<extends>>

    login -|> (login host)
    (login host) <.. (view earnings): <<extends>>
    (login host) <.. (create apartment): <<extends>>
    (login host) <.. (view customer reservation ): <<extends>>

    (view apartments) ..> (use searchbar): <<include>>
    (view apartments) <.. (make review): <<extends>>
    (view apartments) ..> (use filters): <<include>>
    
    
}

@enduml

PlantUML version 1.2020.10(Sun May 17 11:35:57 CEST 2020)
(GPL source distribution)
Java Runtime: OpenJDK Runtime Environment
JVM: OpenJDK 64-Bit Server VM
Java Version: 1.8.0-25-microsoft-b00
Operating System: Windows 10
Default Encoding: Cp1252
Language: it
Country: IT
--></g></svg>